{"title":"TheLordofRings:ReturnoftheKing(2003)MPEG-4{daScubaDude]","uid":15348750,"size":2207602305,"categoryP":"video","categoryS":"movies","magnet":"?xt=urn:btih:549132977dacecb5af6379347034f97b5283a118&amp;dn=TheLordofRings%3AReturnoftheKing%282003%29MPEG-4%7BdaScubaDude%5D&amp;tr=udp%3A%2F%2Ftracker.leechers-paradise.org%3A6969&amp;tr=udp%3A%2F%2Fzer0day.ch%3A1337&amp;tr=udp%3A%2F%2Fopen.demonii.com%3A1337&amp;tr=udp%3A%2F%2Ftracker.coppersurfer.tk%3A6969&amp;tr=udp%3A%2F%2Fexodus.desync.com%3A6969","seeders":1,"leechers":1,"uploader":"dascuba","files":1,"time":1468909423,"description":"The Lord of the Rings: The Return of the King (2003)\r\nPG-13 | 3h 21min | Action, Adventure, Drama | 17 December 2003 (USA)\r\nGandalf and Aragorn lead the World of Men against Sauron's army to draw his gaze from Frodo and Sam as they approach Mount Doom with the One Ring.\r\nDirector: Peter Jackson\r\nWriters: J.R.R. Tolkien (novel), Fran Walsh (screenplay) |\r\nStars: Elijah Wood, Viggo Mortensen, Ian McKellen |\r\n\r\nGeneral\r\nComplete name                            : Return of the KingRETURN_OF_THE_KING_Title1.mp4\r\nFormat                                   : MPEG-4\r\nFormat profile                           : Base Media\r\nCodec ID                                 : isom (isom/iso2/avc1/mp41)\r\nFile size                                : 2.06 GiB\r\nDuration                                 : 3h 20mn\r\nOverall bit rate                         : 1 466 Kbps\r\nMovie name                               : RETURN_OF_THE_KING\r\nGenre                                    : Fantasy\r\nWriting application                      : Lavf54.6.100\r\n\r\nVideo\r\nID                                       : 1\r\nFormat                                   : AVC\r\nFormat/Info                              : Advanced Video Codec\r\nFormat profile                           :   \r\nFormat settings, CABAC                   : No\r\nFormat settings, ReFrames                : 6 frames\r\nCodec ID                                 : avc1\r\nCodec ID/Info                            : Advanced Video Coding\r\nDuration                                 : 3h 20mn\r\nBit rate                                 : 1 203 Kbps\r\nWidth                                    : 720 pixels\r\nHeight                                   : 404 pixels\r\nDisplay aspect ratio                     : 16:9\r\nFrame rate mode                          : Constant\r\nFrame rate                               : 29.970 (30000/1001) fps\r\nColor space                              : YUV\r\nChroma subsampling                       : 4:2:0\r\nBit depth                                : 8 bits\r\nScan type                                : Progressive\r\nBits/(Pixel*Frame)                       : 0.138\r\nStream size                              : 1.69 GiB (82%)\r\n\r\nAudio\r\nID                                       : 2\r\nFormat                                   : AAC\r\nFormat/Info                              : Advanced Audio Codec\r\nFormat profile                           : LC\r\nCodec ID                                 : 40\r\nDuration                                 : 3h 20mn\r\nBit rate mode                            : Constant\r\nBit rate                                 : 257 Kbps\r\nChannel(s)                               : 2 channels\r\nChannel(s)_Original                      : 6 channels\r\nChannel positions                        : Front: L C R, Side: L R, LFE\r\nSampling rate                            : 44.1 KHz\r\nFrame rate                               : 43.066 fps (1024 spf)\r\nCompression mode                         : Lossy\r\nStream size                              : 368 MiB (18%)\r\nDefault                                  : Yes\r\nAlternate group                          : 1","torrent":{"xt":"urn:btih:549132977dacecb5af6379347034f97b5283a118","amp;dn":"TheLordofRings%3AReturnoftheKing%282003%29MPEG-4%7BdaScubaDude%5D","amp;tr":["udp%3A%2F%2Ftracker.leechers-paradise.org%3A6969","udp%3A%2F%2Fzer0day.ch%3A1337","udp%3A%2F%2Fopen.demonii.com%3A1337","udp%3A%2F%2Ftracker.coppersurfer.tk%3A6969","udp%3A%2F%2Fexodus.desync.com%3A6969"],"infoHash":"549132977dacecb5af6379347034f97b5283a118","infoHashBuffer":{"type":"Buffer","data":[84,145,50,151,125,172,236,181,175,99,121,52,112,52,249,123,82,131,161,24]},"announce":[],"urlList":[]}}